<svg width="54" height="52" viewBox="0 0 54 52" fill="none" xmlns="http://www.w3.org/2000/svg">
<path d="M49.7842 9.7539L45.2723 17.604C44.8852 18.2795 44.0195 18.5047 43.3371 18.1157C38.0613 15.0044 31.329 14.7587 25.6559 18.0441C19.9727 21.3397 16.8154 27.3475 16.8765 33.5089C16.8765 34.2867 16.2654 34.9315 15.4811 34.9418L6.58961 35.0032C1.53784 35.0339 -1.63988 29.548 0.886004 25.1471L11.3053 7.00074C13.7293 2.77376 18.2005 0.163886 23.0486 0.133182L44.1315 0.000129518C49.1324 -0.0305749 52.2795 5.40411 49.7842 9.7539Z" fill="#2962FF"/>
<path d="M51.0368 25.5357C55.9562 34.092 52.9313 45.0637 44.2638 49.8434C36.1362 54.3262 25.7984 51.6038 20.9096 43.682C19.7281 41.7681 18.9541 39.7212 18.5671 37.6333C18.4041 36.7633 19.0559 35.9548 19.942 35.9445L28.9761 35.8831C33.814 35.8524 38.2648 33.2528 40.6787 29.036L45.1194 21.3087C45.5573 20.5411 46.586 20.3671 47.2582 20.9505C48.7248 22.2196 50.0082 23.7446 51.0368 25.5255V25.5357Z" fill="#2962FF"/>
</svg>
